<svg width="51" height="51" viewBox="0 0 51 51" fill="none" xmlns="http://www.w3.org/2000/svg">
<path d="M17.9445 24.25C17.9445 16.472 24.2498 10.1666 32.0278 10.1666H34.5278C42.3059 10.1666 48.6111 16.472 48.6111 24.25V26.75C48.6111 34.528 42.3059 40.8333 34.5278 40.8333H32.0278C24.2498 40.8333 17.9445 34.528 17.9445 26.75V24.25Z" fill="url(#paint0_linear)"/>
<path d="M41.2978 25.078C41.61 25.274 41.61 25.7289 41.2978 25.9249L27.7381 34.4386C27.4051 34.6477 26.9722 34.4083 26.9722 34.0152V16.9877C26.9722 16.5945 27.4051 16.3552 27.7381 16.5642L41.2978 25.078Z" fill="#EDEEFF"/>
<path d="M22.8611 21.9445H10.3889C10.1434 21.9445 9.94446 22.1434 9.94446 22.3889C9.94446 22.6344 10.1434 22.8333 10.3889 22.8333H22.8611C23.1066 22.8333 23.3056 22.6344 23.3056 22.3889C23.3056 22.1434 23.1066 21.9445 22.8611 21.9445Z" fill="#EDEEFF"/>
<path d="M15.25 25.9722H2.77776C2.5323 25.9722 2.33331 26.1712 2.33331 26.4166C2.33331 26.6621 2.5323 26.8611 2.77776 26.8611H15.25C15.4954 26.8611 15.6944 26.6621 15.6944 26.4166C15.6944 26.1712 15.4954 25.9722 15.25 25.9722Z" fill="#F4B9FF"/>
<path d="M22.8611 30H10.3889C10.1434 30 9.94446 30.199 9.94446 30.4444C9.94446 30.6899 10.1434 30.8889 10.3889 30.8889H22.8611C23.1066 30.8889 23.3056 30.6899 23.3056 30.4444C23.3056 30.199 23.1066 30 22.8611 30Z" fill="#EDEEFF"/>
<defs>
<linearGradient id="paint0_linear" x1="48.6111" y1="25.5" x2="17.9445" y2="25.5" gradientUnits="userSpaceOnUse">
<stop stop-color="#F9BAFF"/>
<stop offset="1" stop-color="#B9A9FF"/>
</linearGradient>
</defs>
</svg>
